<svg width="634" height="79" viewBox="0 0 634 79" fill="none" xmlns="http://www.w3.org/2000/svg">
<path d="M3.806 31.342C3.806 28.486 4.45 25.924 5.738 23.656C7.026 21.36 8.776 19.568 10.988 18.28C13.228 16.992 15.706 16.348 18.422 16.348C21.614 16.348 24.4 17.118 26.78 18.658C29.16 20.198 30.896 22.382 31.988 25.21H27.41C26.598 23.446 25.422 22.088 23.882 21.136C22.37 20.184 20.55 19.708 18.422 19.708C16.378 19.708 14.544 20.184 12.92 21.136C11.296 22.088 10.022 23.446 9.098 25.21C8.174 26.946 7.712 28.99 7.712 31.342C7.712 33.666 8.174 35.71 9.098 37.474C10.022 39.21 11.296 40.554 12.92 41.506C14.544 42.458 16.378 42.934 18.422 42.934C20.55 42.934 22.37 42.472 23.882 41.548C25.422 40.596 26.598 39.238 27.41 37.474H31.988C30.896 40.274 29.16 42.444 26.78 43.984C24.4 45.496 21.614 46.252 18.422 46.252C15.706 46.252 13.228 45.622 10.988 44.362C8.776 43.074 7.026 41.296 5.738 39.028C4.45 36.76 3.806 34.198 3.806 31.342ZM49.8154 46.378C47.6594 46.378 45.6994 45.888 43.9354 44.908C42.1994 43.928 40.8274 42.542 39.8194 40.75C38.8394 38.93 38.3494 36.83 38.3494 34.45C38.3494 32.098 38.8534 30.026 39.8614 28.234C40.8974 26.414 42.2974 25.028 44.0614 24.076C45.8254 23.096 47.7994 22.606 49.9834 22.606C52.1674 22.606 54.1414 23.096 55.9054 24.076C57.6694 25.028 59.0554 26.4 60.0634 28.192C61.0994 29.984 61.6174 32.07 61.6174 34.45C61.6174 36.83 61.0854 38.93 60.0214 40.75C58.9854 42.542 57.5714 43.928 55.7794 44.908C53.9874 45.888 51.9994 46.378 49.8154 46.378ZM49.8154 43.018C51.1874 43.018 52.4754 42.696 53.6794 42.052C54.8834 41.408 55.8494 40.442 56.5774 39.154C57.3334 37.866 57.7114 36.298 57.7114 34.45C57.7114 32.602 57.3474 31.034 56.6194 29.746C55.8914 28.458 54.9394 27.506 53.7634 26.89C52.5874 26.246 51.3134 25.924 49.9414 25.924C48.5414 25.924 47.2534 26.246 46.0774 26.89C44.9294 27.506 44.0054 28.458 43.3054 29.746C42.6054 31.034 42.2554 32.602 42.2554 34.45C42.2554 36.326 42.5914 37.908 43.2634 39.196C43.9634 40.484 44.8874 41.45 46.0354 42.094C47.1834 42.71 48.4434 43.018 49.8154 43.018ZM79.9566 22.564C82.7566 22.564 85.0246 23.418 86.7606 25.126C88.4966 26.806 89.3646 29.242 89.3646 32.434V46H85.5846V32.98C85.5846 30.684 85.0106 28.934 83.8626 27.73C82.7146 26.498 81.1466 25.882 79.1586 25.882C77.1426 25.882 75.5326 26.512 74.3286 27.772C73.1526 29.032 72.5646 30.866 72.5646 33.274V46H68.7426V22.984H72.5646V26.26C73.3206 25.084 74.3426 24.174 75.6306 23.53C76.9466 22.886 78.3886 22.564 79.9566 22.564ZM102.37 26.134V39.7C102.37 40.82 102.608 41.618 103.084 42.094C103.56 42.542 104.386 42.766 105.562 42.766H108.376V46H104.932C102.804 46 101.208 45.51 100.144 44.53C99.0798 43.55 98.5478 41.94 98.5478 39.7V26.134H95.5658V22.984H98.5478V17.188H102.37V22.984H108.376V26.134H102.37ZM118.929 26.722C119.601 25.406 120.553 24.384 121.785 23.656C123.045 22.928 124.571 22.564 126.363 22.564V26.512H125.355C121.071 26.512 118.929 28.836 118.929 33.484V46H115.107V22.984H118.929V26.722ZM142.913 46.378C140.757 46.378 138.797 45.888 137.033 44.908C135.297 43.928 133.925 42.542 132.917 40.75C131.937 38.93 131.447 36.83 131.447 34.45C131.447 32.098 131.951 30.026 132.959 28.234C133.995 26.414 135.395 25.028 137.159 24.076C138.923 23.096 140.897 22.606 143.081 22.606C145.265 22.606 147.239 23.096 149.003 24.076C150.767 25.028 152.153 26.4 153.161 28.192C154.197 29.984 154.715 32.07 154.715 34.45C154.715 36.83 154.183 38.93 153.119 40.75C152.083 42.542 150.669 43.928 148.877 44.908C147.085 45.888 145.097 46.378 142.913 46.378ZM142.913 43.018C144.285 43.018 145.573 42.696 146.777 42.052C147.981 41.408 148.947 40.442 149.675 39.154C150.431 37.866 150.809 36.298 150.809 34.45C150.809 32.602 150.445 31.034 149.717 29.746C148.989 28.458 148.037 27.506 146.861 26.89C145.685 26.246 144.411 25.924 143.039 25.924C141.639 25.924 140.351 26.246 139.175 26.89C138.027 27.506 137.103 28.458 136.403 29.746C135.703 31.034 135.353 32.602 135.353 34.45C135.353 36.326 135.689 37.908 136.361 39.196C137.061 40.484 137.985 41.45 139.133 42.094C140.281 42.71 141.541 43.018 142.913 43.018ZM165.662 14.92V46H161.84V14.92H165.662ZM195.276 33.61C195.276 34.338 195.234 35.108 195.15 35.92H176.754C176.894 38.188 177.664 39.966 179.064 41.254C180.492 42.514 182.214 43.144 184.23 43.144C185.882 43.144 187.254 42.766 188.346 42.01C189.466 41.226 190.25 40.19 190.698 38.902H194.814C194.198 41.114 192.966 42.92 191.118 44.32C189.27 45.692 186.974 46.378 184.23 46.378C182.046 46.378 180.086 45.888 178.35 44.908C176.642 43.928 175.298 42.542 174.318 40.75C173.338 38.93 172.848 36.83 172.848 34.45C172.848 32.07 173.324 29.984 174.276 28.192C175.228 26.4 176.558 25.028 178.266 24.076C180.002 23.096 181.99 22.606 184.23 22.606C186.414 22.606 188.346 23.082 190.026 24.034C191.706 24.986 192.994 26.302 193.89 27.982C194.814 29.634 195.276 31.51 195.276 33.61ZM191.328 32.812C191.328 31.356 191.006 30.11 190.362 29.074C189.718 28.01 188.836 27.212 187.716 26.68C186.624 26.12 185.406 25.84 184.062 25.84C182.13 25.84 180.478 26.456 179.106 27.688C177.762 28.92 176.992 30.628 176.796 32.812H191.328ZM214.29 34.408C214.29 32.056 214.766 29.998 215.718 28.234C216.67 26.442 217.972 25.056 219.624 24.076C221.304 23.096 223.18 22.606 225.252 22.606C227.044 22.606 228.71 23.026 230.25 23.866C231.79 24.678 232.966 25.756 233.778 27.1V14.92H237.642V46H233.778V41.674C233.022 43.046 231.902 44.18 230.418 45.076C228.934 45.944 227.198 46.378 225.21 46.378C223.166 46.378 221.304 45.874 219.624 44.866C217.972 43.858 216.67 42.444 215.718 40.624C214.766 38.804 214.29 36.732 214.29 34.408ZM233.778 34.45C233.778 32.714 233.428 31.202 232.728 29.914C232.028 28.626 231.076 27.646 229.872 26.974C228.696 26.274 227.394 25.924 225.966 25.924C224.538 25.924 223.236 26.26 222.06 26.932C220.884 27.604 219.946 28.584 219.246 29.872C218.546 31.16 218.196 32.672 218.196 34.408C218.196 36.172 218.546 37.712 219.246 39.028C219.946 40.316 220.884 41.31 222.06 42.01C223.236 42.682 224.538 43.018 225.966 43.018C227.394 43.018 228.696 42.682 229.872 42.01C231.076 41.31 232.028 40.316 232.728 39.028C233.428 37.712 233.778 36.186 233.778 34.45ZM256.239 46.378C254.083 46.378 252.123 45.888 250.359 44.908C248.623 43.928 247.251 42.542 246.243 40.75C245.263 38.93 244.773 36.83 244.773 34.45C244.773 32.098 245.277 30.026 246.285 28.234C247.321 26.414 248.721 25.028 250.485 24.076C252.249 23.096 254.223 22.606 256.407 22.606C258.591 22.606 260.565 23.096 262.329 24.076C264.093 25.028 265.479 26.4 266.487 28.192C267.523 29.984 268.041 32.07 268.041 34.45C268.041 36.83 267.509 38.93 266.445 40.75C265.409 42.542 263.995 43.928 262.203 44.908C260.411 45.888 258.423 46.378 256.239 46.378ZM256.239 43.018C257.611 43.018 258.899 42.696 260.103 42.052C261.307 41.408 262.273 40.442 263.001 39.154C263.757 37.866 264.135 36.298 264.135 34.45C264.135 32.602 263.771 31.034 263.043 29.746C262.315 28.458 261.363 27.506 260.187 26.89C259.011 26.246 257.737 25.924 256.365 25.924C254.965 25.924 253.677 26.246 252.501 26.89C251.353 27.506 250.429 28.458 249.729 29.746C249.029 31.034 248.679 32.602 248.679 34.45C248.679 36.326 249.015 37.908 249.687 39.196C250.387 40.484 251.311 41.45 252.459 42.094C253.607 42.71 254.867 43.018 256.239 43.018ZM303.121 30.922C304.185 31.09 305.151 31.524 306.019 32.224C306.915 32.924 307.615 33.792 308.119 34.828C308.651 35.864 308.917 36.97 308.917 38.146C308.917 39.63 308.539 40.974 307.783 42.178C307.027 43.354 305.921 44.292 304.465 44.992C303.037 45.664 301.343 46 299.383 46H288.463V16.726H298.963C300.951 16.726 302.645 17.062 304.045 17.734C305.445 18.378 306.495 19.26 307.195 20.38C307.895 21.5 308.245 22.76 308.245 24.16C308.245 25.896 307.769 27.338 306.817 28.486C305.893 29.606 304.661 30.418 303.121 30.922ZM292.285 29.368H298.711C300.503 29.368 301.889 28.948 302.869 28.108C303.849 27.268 304.339 26.106 304.339 24.622C304.339 23.138 303.849 21.976 302.869 21.136C301.889 20.296 300.475 19.876 298.627 19.876H292.285V29.368ZM299.047 42.85C300.951 42.85 302.435 42.402 303.499 41.506C304.563 40.61 305.095 39.364 305.095 37.768C305.095 36.144 304.535 34.87 303.415 33.946C302.295 32.994 300.797 32.518 298.921 32.518H292.285V42.85H299.047ZM320.143 26.722C320.815 25.406 321.767 24.384 322.999 23.656C324.259 22.928 325.785 22.564 327.577 22.564V26.512H326.569C322.285 26.512 320.143 28.836 320.143 33.484V46H316.321V22.984H320.143V26.722ZM332.661 34.408C332.661 32.056 333.137 29.998 334.089 28.234C335.041 26.442 336.343 25.056 337.995 24.076C339.675 23.096 341.537 22.606 343.581 22.606C345.597 22.606 347.347 23.04 348.831 23.908C350.315 24.776 351.421 25.868 352.149 27.184V22.984H356.013V46H352.149V41.716C351.393 43.06 350.259 44.18 348.747 45.076C347.263 45.944 345.527 46.378 343.539 46.378C341.495 46.378 339.647 45.874 337.995 44.866C336.343 43.858 335.041 42.444 334.089 40.624C333.137 38.804 332.661 36.732 332.661 34.408ZM352.149 34.45C352.149 32.714 351.799 31.202 351.099 29.914C350.399 28.626 349.447 27.646 348.243 26.974C347.067 26.274 345.765 25.924 344.337 25.924C342.909 25.924 341.607 26.26 340.431 26.932C339.255 27.604 338.317 28.584 337.617 29.872C336.917 31.16 336.567 32.672 336.567 34.408C336.567 36.172 336.917 37.712 337.617 39.028C338.317 40.316 339.255 41.31 340.431 42.01C341.607 42.682 342.909 43.018 344.337 43.018C345.765 43.018 347.067 42.682 348.243 42.01C349.447 41.31 350.399 40.316 351.099 39.028C351.799 37.712 352.149 36.186 352.149 34.45ZM374.358 43.144C376.038 43.144 377.438 42.752 378.558 41.968C379.678 41.184 380.448 40.064 380.868 38.608H384.984C384.424 40.792 383.318 42.584 381.666 43.984C380.042 45.356 377.998 46.14 375.534 46.336V48.436C377.186 48.408 378.502 48.758 379.482 49.486C380.462 50.214 380.952 51.25 380.952 52.594C380.952 53.91 380.476 54.96 379.524 55.744C378.572 56.528 377.34 56.92 375.828 56.92H370.998V54.442H375.072C375.996 54.442 376.668 54.302 377.088 54.022C377.536 53.742 377.76 53.266 377.76 52.594C377.76 51.95 377.536 51.488 377.088 51.208C376.668 50.928 375.996 50.788 375.072 50.788H372.972V46.294C371.04 46.098 369.332 45.496 367.848 44.488C366.364 43.452 365.202 42.08 364.362 40.372C363.55 38.636 363.144 36.662 363.144 34.45C363.144 32.07 363.62 29.998 364.572 28.234C365.524 26.442 366.84 25.056 368.52 24.076C370.228 23.096 372.174 22.606 374.358 22.606C377.186 22.606 379.51 23.292 381.33 24.664C383.178 26.036 384.396 27.94 384.984 30.376H380.868C380.476 28.976 379.706 27.87 378.558 27.058C377.438 26.246 376.038 25.84 374.358 25.84C372.174 25.84 370.41 26.596 369.066 28.108C367.722 29.592 367.05 31.706 367.05 34.45C367.05 37.222 367.722 39.364 369.066 40.876C370.41 42.388 372.174 43.144 374.358 43.144ZM402.222 46.378C400.066 46.378 398.106 45.888 396.342 44.908C394.606 43.928 393.234 42.542 392.226 40.75C391.246 38.93 390.756 36.83 390.756 34.45C390.756 32.098 391.26 30.026 392.268 28.234C393.304 26.414 394.704 25.028 396.468 24.076C398.232 23.096 400.206 22.606 402.39 22.606C404.574 22.606 406.548 23.096 408.312 24.076C410.076 25.028 411.462 26.4 412.47 28.192C413.506 29.984 414.024 32.07 414.024 34.45C414.024 36.83 413.492 38.93 412.428 40.75C411.392 42.542 409.978 43.928 408.186 44.908C406.394 45.888 404.406 46.378 402.222 46.378ZM402.222 43.018C403.594 43.018 404.882 42.696 406.086 42.052C407.29 41.408 408.256 40.442 408.984 39.154C409.74 37.866 410.118 36.298 410.118 34.45C410.118 32.602 409.754 31.034 409.026 29.746C408.298 28.458 407.346 27.506 406.17 26.89C404.994 26.246 403.72 25.924 402.348 25.924C400.948 25.924 399.66 26.246 398.484 26.89C397.336 27.506 396.412 28.458 395.712 29.746C395.012 31.034 394.662 32.602 394.662 34.45C394.662 36.326 394.998 37.908 395.67 39.196C396.37 40.484 397.294 41.45 398.442 42.094C399.59 42.71 400.85 43.018 402.222 43.018ZM449.86 46L442.888 34.03H438.268V46H434.446V16.726H443.896C446.108 16.726 447.97 17.104 449.482 17.86C451.022 18.616 452.17 19.638 452.926 20.926C453.682 22.214 454.06 23.684 454.06 25.336C454.06 27.352 453.472 29.13 452.296 30.67C451.148 32.21 449.412 33.232 447.088 33.736L454.438 46H449.86ZM438.268 30.964H443.896C445.968 30.964 447.522 30.46 448.558 29.452C449.594 28.416 450.112 27.044 450.112 25.336C450.112 23.6 449.594 22.256 448.558 21.304C447.55 20.352 445.996 19.876 443.896 19.876H438.268V30.964ZM472.137 46.378C469.981 46.378 468.021 45.888 466.257 44.908C464.521 43.928 463.149 42.542 462.141 40.75C461.161 38.93 460.671 36.83 460.671 34.45C460.671 32.098 461.175 30.026 462.183 28.234C463.219 26.414 464.619 25.028 466.383 24.076C468.147 23.096 470.121 22.606 472.305 22.606C474.489 22.606 476.463 23.096 478.227 24.076C479.991 25.028 481.377 26.4 482.385 28.192C483.421 29.984 483.939 32.07 483.939 34.45C483.939 36.83 483.407 38.93 482.343 40.75C481.307 42.542 479.893 43.928 478.101 44.908C476.309 45.888 474.321 46.378 472.137 46.378ZM472.137 43.018C473.509 43.018 474.797 42.696 476.001 42.052C477.205 41.408 478.171 40.442 478.899 39.154C479.655 37.866 480.033 36.298 480.033 34.45C480.033 32.602 479.669 31.034 478.941 29.746C478.213 28.458 477.261 27.506 476.085 26.89C474.909 26.246 473.635 25.924 472.263 25.924C470.863 25.924 469.575 26.246 468.399 26.89C467.251 27.506 466.327 28.458 465.627 29.746C464.927 31.034 464.577 32.602 464.577 34.45C464.577 36.326 464.913 37.908 465.585 39.196C466.285 40.484 467.209 41.45 468.357 42.094C469.505 42.71 470.765 43.018 472.137 43.018ZM494.886 27.268C495.67 25.896 496.818 24.776 498.33 23.908C499.842 23.04 501.564 22.606 503.496 22.606C505.568 22.606 507.43 23.096 509.082 24.076C510.734 25.056 512.036 26.442 512.988 28.234C513.94 29.998 514.416 32.056 514.416 34.408C514.416 36.732 513.94 38.804 512.988 40.624C512.036 42.444 510.72 43.858 509.04 44.866C507.388 45.874 505.54 46.378 503.496 46.378C501.508 46.378 499.758 45.944 498.246 45.076C496.762 44.208 495.642 43.102 494.886 41.758V46H491.064V14.92H494.886V27.268ZM510.51 34.408C510.51 32.672 510.16 31.16 509.46 29.872C508.76 28.584 507.808 27.604 506.604 26.932C505.428 26.26 504.126 25.924 502.698 25.924C501.298 25.924 499.996 26.274 498.792 26.974C497.616 27.646 496.664 28.64 495.936 29.956C495.236 31.244 494.886 32.742 494.886 34.45C494.886 36.186 495.236 37.712 495.936 39.028C496.664 40.316 497.616 41.31 498.792 42.01C499.996 42.682 501.298 43.018 502.698 43.018C504.126 43.018 505.428 42.682 506.604 42.01C507.808 41.31 508.76 40.316 509.46 39.028C510.16 37.712 510.51 36.172 510.51 34.408ZM531.585 46.378C529.429 46.378 527.469 45.888 525.705 44.908C523.969 43.928 522.597 42.542 521.589 40.75C520.609 38.93 520.119 36.83 520.119 34.45C520.119 32.098 520.623 30.026 521.631 28.234C522.667 26.414 524.067 25.028 525.831 24.076C527.595 23.096 529.569 22.606 531.753 22.606C533.937 22.606 535.911 23.096 537.675 24.076C539.439 25.028 540.825 26.4 541.833 28.192C542.869 29.984 543.387 32.07 543.387 34.45C543.387 36.83 542.855 38.93 541.791 40.75C540.755 42.542 539.341 43.928 537.549 44.908C535.757 45.888 533.769 46.378 531.585 46.378ZM531.585 43.018C532.957 43.018 534.245 42.696 535.449 42.052C536.653 41.408 537.619 40.442 538.347 39.154C539.103 37.866 539.481 36.298 539.481 34.45C539.481 32.602 539.117 31.034 538.389 29.746C537.661 28.458 536.709 27.506 535.533 26.89C534.357 26.246 533.083 25.924 531.711 25.924C530.311 25.924 529.023 26.246 527.847 26.89C526.699 27.506 525.775 28.458 525.075 29.746C524.375 31.034 524.025 32.602 524.025 34.45C524.025 36.326 524.361 37.908 525.033 39.196C525.733 40.484 526.657 41.45 527.805 42.094C528.953 42.71 530.213 43.018 531.585 43.018ZM535.869 16.18L526.923 20.968V18.112L535.869 12.862V16.18ZM555.174 26.134V39.7C555.174 40.82 555.412 41.618 555.888 42.094C556.364 42.542 557.19 42.766 558.366 42.766H561.18V46H557.736C555.608 46 554.012 45.51 552.948 44.53C551.884 43.55 551.352 41.94 551.352 39.7V26.134H548.37V22.984H551.352V17.188H555.174V22.984H561.18V26.134H555.174ZM569.885 19.246C569.157 19.246 568.541 18.994 568.037 18.49C567.533 17.986 567.281 17.37 567.281 16.642C567.281 15.914 567.533 15.298 568.037 14.794C568.541 14.29 569.157 14.038 569.885 14.038C570.585 14.038 571.173 14.29 571.649 14.794C572.153 15.298 572.405 15.914 572.405 16.642C572.405 17.37 572.153 17.986 571.649 18.49C571.173 18.994 570.585 19.246 569.885 19.246ZM571.733 22.984V46H567.911V22.984H571.733ZM578.919 34.45C578.919 32.07 579.395 29.998 580.347 28.234C581.299 26.442 582.615 25.056 584.295 24.076C586.003 23.096 587.949 22.606 590.133 22.606C592.961 22.606 595.285 23.292 597.105 24.664C598.953 26.036 600.171 27.94 600.759 30.376H596.643C596.251 28.976 595.481 27.87 594.333 27.058C593.213 26.246 591.813 25.84 590.133 25.84C587.949 25.84 586.185 26.596 584.841 28.108C583.497 29.592 582.825 31.706 582.825 34.45C582.825 37.222 583.497 39.364 584.841 40.876C586.185 42.388 587.949 43.144 590.133 43.144C591.813 43.144 593.213 42.752 594.333 41.968C595.453 41.184 596.223 40.064 596.643 38.608H600.759C600.143 40.96 598.911 42.85 597.063 44.278C595.215 45.678 592.905 46.378 590.133 46.378C587.949 46.378 586.003 45.888 584.295 44.908C582.615 43.928 581.299 42.542 580.347 40.75C579.395 38.958 578.919 36.858 578.919 34.45ZM617.997 46.378C615.841 46.378 613.881 45.888 612.117 44.908C610.381 43.928 609.009 42.542 608.001 40.75C607.021 38.93 606.531 36.83 606.531 34.45C606.531 32.098 607.035 30.026 608.043 28.234C609.079 26.414 610.479 25.028 612.243 24.076C614.007 23.096 615.981 22.606 618.165 22.606C620.349 22.606 622.323 23.096 624.087 24.076C625.851 25.028 627.237 26.4 628.245 28.192C629.281 29.984 629.799 32.07 629.799 34.45C629.799 36.83 629.267 38.93 628.203 40.75C627.167 42.542 625.753 43.928 623.961 44.908C622.169 45.888 620.181 46.378 617.997 46.378ZM617.997 43.018C619.369 43.018 620.657 42.696 621.861 42.052C623.065 41.408 624.031 40.442 624.759 39.154C625.515 37.866 625.893 36.298 625.893 34.45C625.893 32.602 625.529 31.034 624.801 29.746C624.073 28.458 623.121 27.506 621.945 26.89C620.769 26.246 619.495 25.924 618.123 25.924C616.723 25.924 615.435 26.246 614.259 26.89C613.111 27.506 612.187 28.458 611.487 29.746C610.787 31.034 610.437 32.602 610.437 34.45C610.437 36.326 610.773 37.908 611.445 39.196C612.145 40.484 613.069 41.45 614.217 42.094C615.365 42.71 616.625 43.018 617.997 43.018Z" fill="black"/>
<line x1="0.993776" y1="76.97" x2="633.994" y2="75" stroke="#9600DD" stroke-width="4"/>
</svg>
